<?xml version="1.0" encoding="UTF-8"?>
<svg id="Ebene_1" xmlns="http://www.w3.org/2000/svg" viewBox="0 0 24.4 25.5">
  <defs>
    <style>
      .cls-1 {
        fill: none;
        stroke: #1390ca;
        stroke-linecap: round;
        stroke-miterlimit: 10;
        stroke-width: 1.2px;
      }
    </style>
  </defs>
  <path class="cls-1" d="M8.4,17.2H2.2c-.4,0-.8-.2-1.1-.5s-.5-.6-.5-1.1v-1.4c0-.8.2-1.5.6-2.3.4-.6,1-1.2,1.6-1.6s1.5-.6,2.3-.6h.6l2.3,2.4,2.6-2.4h.6c.8,0,1.5.2,2.3.6.2.1.4.3.6.5M8.1,8.2c-.6,0-1.3-.2-1.9-.5-.6-.3-1-.7-1.4-1.4-.3-.6-.5-1.2-.5-1.9s.2-1.3.5-1.9c.3-.6.7-1,1.4-1.4.6-.3,1.2-.5,1.9-.5s1.3.2,1.9.5,1,.7,1.4,1.4c.3.6.5,1.2.5,1.9s-.2,1.3-.5,1.9c-.3.6-.7,1-1.4,1.4s-1.2.5-1.9.5Z"/>
  <path class="cls-1" d="M23.6,19.7c0,0,.1,0,.2.2,0,0,0,.1,0,.2-.3,1-.8,1.8-1.5,2.6,0,0-.1,0-.2.1,0,0-.1,0-.2,0l-1.2-.7c-.5.4-1.1.7-1.7,1v1.3c0,0,0,.1,0,.2,0,0-.1.1-.2.1-1,.2-2,.2-3,0,0,0-.1,0-.2-.1,0,0,0-.1,0-.2v-1.3c-.6-.2-1.2-.5-1.7-1l-1.2.7c0,0-.1,0-.2,0,0,0-.1,0-.2-.1-.7-.8-1.2-1.6-1.5-2.6,0,0,0-.1,0-.2,0,0,0-.1.2-.2l1.2-.7c-.1-.6-.1-1.3,0-1.9l-1.2-.7c0,0-.1,0-.2-.2,0,0,0-.1,0-.2.3-1,.8-1.8,1.5-2.6,0,0,.1,0,.2-.1,0,0,.1,0,.2,0l1.2.7c.5-.4,1.1-.7,1.7-1v-1.3c0,0,0-.1,0-.2,0,0,.1-.1.2-.1,1-.2,2-.2,3,0,0,0,.1,0,.2.1,0,0,0,.1,0,.2v1.3c.6.2,1.2.5,1.7,1l1.2-.7c0,0,.1,0,.2,0,0,0,.1,0,.2.1.7.8,1.2,1.6,1.5,2.6,0,0,0,.1,0,.2,0,0,0,.1-.2.2l-1.2.7c.1.6.1,1.3,0,1.9l1.2.7ZM18.8,16.5c-.4-.4-.9-.6-1.6-.6s-1.1.2-1.6.6-.6.9-.6,1.6.2,1.1.6,1.6.9.6,1.6.6,1.1-.2,1.6-.6.6-.9.6-1.6-.2-1.1-.6-1.6Z"/>
</svg>