<svg xmlns="http://www.w3.org/2000/svg" id="Ebene_1" viewBox="0 0 19.5 23">
  <defs fill="#000000">
    <style>
      .cls-1 {
        fill: none;
        stroke: #ffffff;
        stroke-miterlimit: 10;
        stroke-width: 1.2px;
      }
    </style>
  </defs>
  <path class="cls-1" d="M8.4,13l-1.9-7.2c-.1-.5.2-1,.6-1.1l6.5-1.7c.5-.1,1,.2,1.1.6l3.2,12.3c.1.5-.2,1-.6,1.1l-2.7.7" fill="#000000"/>
  <path class="cls-1" d="M10.3,2.5v-1.1c0-.5.5-.9,1-.8l6.7.4c.5,0,.9.4.8.9l-.6,11.1" fill="#000000"/>
  <circle class="cls-1" cx="9.6" cy="18.2" r="4.2" fill="#000000"/>
  <path class="cls-1" d="M4.5,19.5c-.1,0-.3,0-.4,0-1.9,0-3.4-1.5-3.4-3.4s1.5-3.4,3.4-3.4,1.8.4,2.4,1" fill="#000000"/>
</svg>